<svg width="180" height="180" viewBox="0 0 180 180" fill="none" xmlns="http://www.w3.org/2000/svg">
  <rect width="180" height="180" rx="36" fill="#FFFFFF"/>
  <g transform="translate(47, 30) scale(0.0108)">
    <path fill="#3E4093" d="M80.17 4577.23c-100.37,35.08 -84.59,105.53 -83.5,223.81 0.9,98.58 0.61,197.13 0.61,295.73l-0.01 1181.46c-0.12,78.29 -17.67,216.79 18.78,280.89 36.97,64.99 164.63,68.67 230.24,41 116.54,-49.11 66.27,-380.84 66.29,-518.8l-0.06 -1181.47c-0.02,-183.27 25.77,-412.82 -232.35,-322.62zm1183.72 2489.89c75.88,47.5 252.64,75.18 286.08,-47.25 12.82,-46.93 23.23,-2908.75 -14.33,-2964.31 -46.64,-69 -261.64,-81.22 -289.91,40.67l-3.16 1276.21c0,272.18 -28.26,1548.09 21.32,1694.68zm1313.99 -3808.92c-129.55,50.19 -76.11,386.79 -76.11,538.96l-0.03 3701.91c-0.3,190.39 -34.69,458.01 241.07,356.69 130.56,-47.98 73.7,-396.6 73.68,-533.91l0.09 -3701.91c0.34,-196.89 33.77,-467.3 -238.7,-361.74zm1218.25 5540.48c68.71,80.73 219.43,94.27 290.73,-14.11 33.56,-78.07 4.63,-5557.01 9.6,-6247.7 1.18,-164.31 30.87,-280.3 -156.52,-282.48 -188.89,-2.2 -160.33,108.99 -159.2,262.7 7.71,1052.57 -25.84,6176.79 15.39,6281.59zm1340.99 890.83c64.67,36.83 157.07,64.66 238.85,15.86 71.44,-48.22 58.94,-81.76 58.1,-197.08 -18.39,-2544.1 -3.65,-5149.44 -0.61,-7699.93 0.19,-159.04 52.68,-399.31 -114.57,-422.85 -251.07,-35.33 -199.83,156.02 -199.69,344.08l0 6911.57c0,222.16 -25.24,888.53 17.92,1048.35zm1320.36 -8992.67c-134.81,48.83 -77.77,390.53 -77.76,540.48l-0.33 8821.59c-0.39,185.51 -33.49,462.02 242,357.26 128.15,-48.74 72.54,-395.93 72.66,-534.48l-0.09 -8821.59c-0.1,-188.8 39.22,-463.13 -236.48,-363.26zm1504.13 10208.78l0.19 -10751.31c-0.12,-130.74 -81.92,-170.91 -214.75,-147.64 -125.56,21.99 -102.64,123.71 -101.86,265.62 17.93,3259.47 0.14,6561.38 0.14,9826 0,249.34 1.61,499.21 -0.25,748.47 -1.04,138.35 -23.94,242.74 114.88,260.41 184.96,23.53 201.65,-46.23 201.65,-201.55z"/>
  </g>
</svg>
