<?xml version="1.0" encoding="UTF-8"?>
<!DOCTYPE svg PUBLIC "-//W3C//DTD SVG 1.1//EN" "http://www.w3.org/Graphics/SVG/1.1/DTD/svg11.dtd">
<!-- Creator: CorelDRAW -->
<svg xmlns="http://www.w3.org/2000/svg" xml:space="preserve" width="100%" height="100%" version="1.1" style="shape-rendering:geometricPrecision; text-rendering:geometricPrecision; image-rendering:optimizeQuality; fill-rule:evenodd; clip-rule:evenodd"
viewBox="0 0 18530.9 4687.4"
 xmlns:xlink="http://www.w3.org/1999/xlink"
 xmlns:xodm="http://www.corel.com/coreldraw/odm/2003">
 <defs>
  <style type="text/css">
   <![CDATA[
    .fil0 {fill:#3E4093}
   ]]>
  </style>
 </defs>
 <g id="Camada_x0020_1">
  <metadata id="CorelCorpID_0Corel-Layer"/>
  <path class="fil0" d="M3972.93 538.87c151.05,-28.69 491.16,-9.66 662.59,-9.98 206.5,-0.39 412.92,12 529.79,126.03 99.47,97.05 307.84,647.81 -470.72,647.52l-721.03 -8.26 -0.63 -755.31zm-3809.35 3485.73l1.21 -198.53 257.89 -1.02 76.08 35.31c29.91,220.41 -153.45,154.95 -335.18,164.24zm13330.85 -0.07l-0.05 -202.07 251.28 5.25c97.1,19.82 127.32,118.03 47.15,171.91 -60.75,40.83 -214.61,20.72 -298.38,24.91zm4097.42 279.72c-55.04,-51.37 -266.61,-9.27 -419.83,-29.97l-1.67 -128.35c175.94,-14.83 300.79,26.3 354.59,-32.43 1.52,-233.99 -48.96,-83.45 -380.26,-139.4l7.8 -159.47 453.69 -1.62 -13.73 -135.39 -606.12 1.78 2.19 754.28 617.45 -7.97 -14.11 -121.46zm-1409.45 -727.23c101.48,9.54 71.35,0.85 129.91,-44.82 115.02,21.47 302.82,123.98 265.3,-110.9 -181.89,-11.17 4.29,63.39 -229.31,8.8 -125.5,-29.33 -169.17,35.88 -165.9,146.92zm-2071.31 -817.24c24.71,59.78 36.91,35.56 212.42,34.81 78.77,-0.33 157.53,-0.29 236.29,-0.29 368.59,0.02 1172.58,19.44 1449.8,-3.83 40.77,-93.2 35.65,-398.4 3.58,-499.69 -322.72,-29.11 -1211.32,27.57 -1410.75,-16.19l-0.1 -594.86 1157.19 -4.45 9.08 -493.27 -1162.98 -2.39 -3.28 -618.19 1412.82 -2.26 -1.06 -488.08 -1900.33 -4.97 -2.68 2693.66zm-1006.92 1043.66l1.69 -122.75c-131.21,-9.08 -558.82,-22.6 -665.22,10.21 -3.44,184.32 57.78,113.89 251.44,126.95l1.94 609.44c207.66,34.6 164.26,-21.9 162.95,-210.22 -0.92,-133.32 -2.67,-269.17 1.21,-401.67l245.99 -11.96zm-8009.62 0.09l2.63 -127.97c-152.03,1.92 -551.49,-25.01 -669.16,18.22 -0.65,177.69 64.07,116.63 255.14,121.63l-1.88 616.49 163.55 -5.03 3.07 -611.13 246.65 -12.21zm3751.02 -1478.33c-22.95,-60.15 -51.41,-41.73 -133.33,-40.23l-1169.52 0.26 -1.61 -2213.48c-93.51,-39.82 -399.36,-33.11 -499.72,-4.85 -32.64,169.77 -27.04,2627.74 5.91,2723.32 248.32,23.12 1199.35,2.04 1585.52,4.24 213.45,1.21 173.45,21.91 211.98,-34.68l0.77 -434.58zm-6132.52 1838.95c-49.33,255 314.66,359.82 514.35,240.07 187.51,-112.45 144.03,-471.14 137.08,-727.73l-544.85 1.51 14.11 135.23 367.58 3.45c3.54,149.55 46.66,427.88 -96.89,483.39 -86.49,33.45 -173.72,3.57 -213.24,-51.02 -75.03,-103.62 -6,-81.66 -178.14,-84.9zm6628.63 1.73c-59.48,78.25 -54.73,171.19 -232.03,143.54 -210.97,-32.89 -209.46,-474.77 -3.08,-509.66 168.9,-28.56 177.81,56.6 235.08,139.96l139.81 2.37c2.67,-219.03 -184.93,-313.51 -415.04,-278.85 -214.38,32.3 -272.75,178 -269.26,415.85 8.43,575.24 752.78,408.68 674.7,85.96l-130.18 0.83zm4885.01 -480.24c-11.45,361.19 -71.13,770.43 332.92,767.11 400.64,-3.31 331.51,-430.82 323.5,-777.03l-162.31 10.06c-0.11,192.12 82.21,642.37 -179.23,625.54 -224.39,-14.45 -153.74,-425.24 -153.13,-636.83l-161.75 11.15zm-14069.19 485.34c111.08,-18.92 594.81,58.44 507.69,-316.11 -60.57,-260.41 -597.47,-185.84 -669.42,-163.41 -2.8,148.41 -0.43,298.04 -0.47,446.6 -0.08,343.41 -34.35,298.98 156.47,296.65l5.73 -263.73zm7563.72 -356.6l454.19 -1.39 5.08 -135.69 -619.68 -0.3 8.3 756.88 611.34 -1.89 -1.38 -136.52 -457.08 -1.25 7.12 -170.34 368.76 -10.5 -1.76 -129.27 -374.61 -1.52 -0.28 -168.21zm-3932.74 1.61l455.35 -12.56 2.66 -127.13 -621.35 2.91 8.24 754.21 612.34 1.43 -2.49 -139.33 -453.51 -4.28 -3.13 -164.37 372.69 -2.07 -1.6 -140.61 -370.36 -5.21 1.16 -162.99zm11630.34 733.5l82.13 -0.68c-9.22,89.13 -26.85,88.23 -84.24,25.45l-66.66 16.69c20.59,193.92 383.02,66.59 169.46,-115.61l-25.08 -20.88c191.81,-15.94 299.78,-94.14 313.65,-287.21l-145.58 6.74c-57.65,83.76 -76.81,175.78 -249.5,132.64 -107.16,-26.77 -129.17,-123.8 -129.78,-247.26 -0.66,-131.5 22.93,-234.62 145.22,-257.17 161.68,-29.82 173.01,46.86 234.05,139.75l140.01 0.92c17.12,-326.46 -458.99,-359.16 -609.56,-175.8 -56.11,68.32 -216.05,556.34 174.2,677.63l25.48 61.07c21.26,44.3 -1.74,12.85 26.2,43.72zm-9869.96 -724.11c321.68,-177.29 363.61,378.11 187.32,467.13 -193.79,97.84 -324.2,-78.13 -280.42,-341.96 15.43,-93.03 37.34,-94.43 93.1,-125.17zm-255.09 352.06c52.46,368.3 776.98,469.98 697.73,-236.52 -43.79,-390.39 -797.81,-466.22 -697.73,236.52zm4581.48 -19.69c-67.88,-470.01 338.45,-436.47 372.28,-196.79 66.91,474.11 -341.86,407.42 -372.28,196.79zm-155.76 59.07c75.51,345.03 821.24,385.63 685.09,-312.96 -71.33,-366.05 -839.95,-394.7 -685.09,312.96zm6575.37 -395.07c305.14,-163.77 365.09,389.73 177.77,474.22 -309.42,139.57 -374.27,-368.75 -177.77,-474.22zm-250.42 414.76c96.17,340.08 843.31,337.98 676.85,-349.35 -91.16,-376.38 -867.4,-324.51 -676.85,349.35zm-14084.82 -78.76c-64.12,-472.48 341.83,-436.27 373.58,-196.88 19.8,149.22 6.27,292.2 -98.16,334.8 -140.7,57.4 -258.96,-16.59 -275.42,-137.92zm528.13 59.07c173.21,-673.74 -593.85,-693.25 -681.9,-329.4 -166.81,689.26 587.33,697.23 681.9,329.4zm11345.16 -59.07c73.34,-57.8 137.31,-69.71 158.41,-178.93 22.59,-116.91 -14.41,-208.84 -83.22,-252.89 -109.4,-70.05 -415.92,-58.58 -583.89,-46.18l0.25 751.2 156.29 0.88 5.52 -265.25 152.29 -4.66 154.84 269.49 191.27 1.44 -151.76 -275.1zm-2258.22 8.23c-72.6,389.8 813.96,392.71 677.9,-42.24 -69.19,-221.2 -414.92,-93.41 -488.55,-185.28 -106.38,-132.73 182.52,-189.43 274.58,-94.15 36.17,37.43 22.46,54.36 59.8,96.83l135.84 -0.38c5.49,-341.16 -488.2,-346.89 -610.08,-178.77 -53.79,74.18 -85.65,271.81 81.91,333.19 138.52,50.75 278.99,-0.65 388.78,81.76 3.97,129.46 -77.79,148.06 -211.72,134.25 -136.66,-14.09 -111.51,-64.3 -178.55,-146.09l-129.91 0.88zm-5214.27 1.5c-142.86,-7.85 -189.15,14.84 -108.52,144.9 126.86,204.63 650.41,212.08 662.36,-97.71 12.04,-311.71 -299.62,-187.97 -452.91,-249.51 -118.75,-47.67 -66,-170.34 83.93,-169.37 145.2,0.94 145.32,58.39 197.18,145.08l141.25 0.47c10.71,-342.67 -494.91,-351.53 -612.97,-175.16 -75.9,113.38 -30.9,282.7 81.75,327.91 134.38,53.93 318.98,-13.33 398.07,103.04 -14.89,120.29 -105.42,127.46 -223,112.84 -127.85,-15.91 -118.79,-71.71 -167.14,-142.49zm-5294.8 -351.84c120.43,-3.1 349.6,-40.79 345.28,104.91 -4.28,144.19 -228.23,101.79 -347.26,101.78l1.98 -206.69zm346.09 342.11c78.47,-63.75 136.34,-52.31 158.45,-177.6 66.8,-378.63 -394.38,-307.21 -665.76,-303.09l-0.91 758.74c254.09,-0.98 126.83,-13.92 168.39,-272.82l149.26 3.75c184.26,306 115.87,271.84 336.69,261.13 -38.54,-81.98 -120.79,-195.94 -146.12,-270.11zm16602.64 -222.97c-27.21,-190.5 264.91,-208.99 325.3,7.48l151.17 -6.93c11.84,-335.13 -493.52,-337.81 -608.78,-177.87 -88.9,123.38 -37.97,290.29 88.84,340.12 139.75,54.9 254.94,-6.75 384.5,79.24 0.7,124.03 -72.77,147.77 -209.79,134.17 -137.7,-13.67 -117.67,-60.74 -179.23,-145.6l-130.28 -0.13c-74.94,295.6 448.5,364.47 617.34,204.01 102.23,-97.17 93.97,-290.58 -30.78,-353.05 -131.38,-65.79 -279.2,-0.7 -408.29,-81.44zm-7181.52 -20.68c6.3,41.3 136.71,246.23 173.64,311.39 109.2,192.72 52.76,217.12 311.09,206.88l0.31 -758.99 -161.16 13.41 -5.32 496.33c-65.03,-75.27 -131,-219.71 -184.47,-311.87 -89.24,-153.79 -63.1,-223.91 -303.54,-186.45l0.55 747.16 160.71 -0.33 8.19 -517.53zm-10833.72 -662.14c54.8,60.64 443.94,33.13 540.67,33.13l17406.88 0.01c140.89,0 469.46,46.31 550.33,-33.14 -18.22,-47.84 9.58,-43.69 -77.48,-51.9l-2185.97 1.72c-5321.09,0 -10671.56,20.68 -15989.17,-0.04 -93.84,-0.37 -219.44,-32.31 -245.26,50.22zm12168.82 -1938.19l-1.83 -747.21c134.72,-20.68 568.92,-14.58 712.44,-3.44 231.15,17.94 369.85,134.01 376.16,365.4 6.51,238.21 -130.81,366.25 -351.6,387.34 -143.71,13.72 -600.08,17.78 -735.17,-2.09zm-495.74 1471.43l484.07 1.52 9.95 -963.29c428.29,-76.85 815.72,99.89 1219.15,-139.62 275.2,-163.38 426.44,-537.67 343.27,-968.7 -71.29,-369.5 -322.03,-593.21 -709.63,-640.23 -167.42,-20.31 -1201.45,-28.05 -1341.93,-0.6l-4.88 2710.92zm-9362.62 -2.05l712.66 5.26 -4.95 -2757.99 -621.94 -5.53 -0.41 2051.82c-45.74,-30.26 -23.24,-13.05 -57.78,-51.38 -12.9,-14.33 -40.01,-49.12 -52.76,-65.39l-1545.17 -1934.91 -609.6 0.44c19.42,65.88 451.42,589.04 528.86,685.34l1651.09 2072.34zm7727.66 -2271.86c511.53,-119.05 716.65,290.4 719.84,751.29 3.36,486.68 8.22,980.99 -432.76,1078.92 -543.41,120.66 -736.5,-287.88 -738.46,-762.71 -2.1,-509.26 -17.99,-958.26 451.38,-1067.5zm-76.41 -491.9c-896.36,133.71 -877.03,984.6 -869.43,1637.82 4.61,395.13 122.68,737.61 327.88,926.87 456.86,421.36 1378.3,381.18 1690.74,-261.31 165.89,-341.12 148.65,-704.41 141.39,-1118.88 -13.89,-793.01 -446.27,-1310.46 -1290.58,-1184.5zm6853.05 1825.66l-482.03 -8.75c-42.98,337.1 149.86,638.63 309.87,770.99 556.08,460 2046.79,360.12 1809.13,-881.65 -157.91,-825.06 -1186.31,-393.15 -1490.57,-676.71 -135.51,-126.28 -150.11,-553.95 376.07,-552.45 529.9,1.5 520.31,356.33 576.78,524.11l476.55 -0.06c49.28,-680.5 -476.07,-1046.18 -1132.95,-1017.69 -820.19,35.56 -1001.55,746.92 -807.65,1241.21 267.02,680.63 1363.35,238.71 1513.5,653.04 129.64,357.73 -269.43,471.04 -567.18,460.84 -367.26,-12.59 -532.15,-169.6 -581.52,-512.88zm-12849.28 951.55l9.88 -985.13 567.74 -2.98 590.51 984.97 663.86 4.41c-13.69,-80.22 -235.2,-429.64 -288.85,-516.8 -72.48,-117.74 -262,-414.41 -300.89,-526.96 858.65,-226.63 732.75,-1213.19 371.23,-1492.44 -273.8,-211.49 -561.26,-235.08 -981.93,-235.6 -306.64,-0.38 -940.87,-35.35 -1209.39,7 -37.72,570.25 -0.74,1813.3 -2.75,2510.06 -0.81,279.84 -129.87,268.37 580.59,253.47z"/>
 </g>
</svg>
